name GIL02_slow1.mot
datacolumns 153
datarows 4
range 1.06666660 1.09166670
endheader

                time	           pelvis_tx	           pelvis_ty	           pelvis_tz	         pelvis_tilt	         pelvis_list	     pelvis_rotation	       hip_flexion_r	     hip_adduction_r	      hip_rotation_r	        knee_angle_r	       ankle_angle_r	    subtalar_angle_r	         mtp_angle_r	       hip_flexion_l	     hip_adduction_l	      hip_rotation_l	        knee_angle_l	       ankle_angle_l	    subtalar_angle_l	         mtp_angle_l	    lumbar_extension	      lumbar_bending	     lumbar_rotation	     ground_force_vx	     ground_force_vy	     ground_force_vz	     ground_force_px	     ground_force_py	     ground_force_pz	     ground_force_vx	     ground_force_vy	     ground_force_vz	     ground_force_px	     ground_force_py	     ground_force_pz	     ground_torque_x	     ground_torque_y	     ground_torque_z	     ground_torque_x	     ground_torque_y	     ground_torque_z	    ground_marker_px	    ground_marker_py	    ground_marker_pz	    ground_marker_px	    ground_marker_py	    ground_marker_pz	    ground_marker_px	    ground_marker_py	    ground_marker_pz	    ground_marker_px	    ground_marker_py	    ground_marker_pz	    ground_marker_px	    ground_marker_py	    ground_marker_pz	    ground_marker_px	    ground_marker_py	    ground_marker_pz	    ground_marker_px	    ground_marker_py	    ground_marker_pz	    ground_marker_px	    ground_marker_py	    ground_marker_pz	    ground_marker_px	    ground_marker_py	    ground_marker_pz	    ground_marker_px	    ground_marker_py	    ground_marker_pz	    ground_marker_px	    ground_marker_py	    ground_marker_pz	    ground_marker_px	    ground_marker_py	    ground_marker_pz	    ground_marker_px	    ground_marker_py	    ground_marker_pz	    ground_marker_px	    ground_marker_py	    ground_marker_pz	    ground_marker_px	    ground_marker_py	    ground_marker_pz	    ground_marker_px	    ground_marker_py	    ground_marker_pz	    ground_marker_px	    ground_marker_py	    ground_marker_pz	    ground_marker_px	    ground_marker_py	    ground_marker_pz	    ground_marker_px	    ground_marker_py	    ground_marker_pz	    ground_marker_px	    ground_marker_py	    ground_marker_pz	    ground_marker_px	    ground_marker_py	    ground_marker_pz	    ground_marker_px	    ground_marker_py	    ground_marker_pz	    ground_marker_px	    ground_marker_py	    ground_marker_pz	    ground_marker_px	    ground_marker_py	    ground_marker_pz	    ground_marker_px	    ground_marker_py	    ground_marker_pz	    ground_marker_px	    ground_marker_py	    ground_marker_pz	    ground_marker_px	    ground_marker_py	    ground_marker_pz	    ground_marker_px	    ground_marker_py	    ground_marker_pz	    ground_marker_px	    ground_marker_py	    ground_marker_pz	    ground_marker_px	    ground_marker_py	    ground_marker_pz	    ground_marker_px	    ground_marker_py	    ground_marker_pz	    ground_marker_px	    ground_marker_py	    ground_marker_pz	    ground_marker_px	    ground_marker_py	    ground_marker_pz	    ground_marker_px	    ground_marker_py	    ground_marker_pz	    ground_marker_px	    ground_marker_py	    ground_marker_pz	    ground_marker_px	    ground_marker_py	    ground_marker_pz	    ground_marker_px	    ground_marker_py	    ground_marker_pz	
          1.06666660	          1.39229965	          0.96122086	         -0.22563675	          1.21650219	          4.38784409	         -4.11137486	         20.07583618	         -5.70933437	         14.20869827	        -50.36958313	         -1.08853018	          0.00000000	          0.00000000	         -1.88185215	          7.76874113	          5.94729471	         -1.90191042	          4.70708084	          0.00000000	          0.00000000	        -13.32731438	         -0.87775385	         -1.76172996	          0.00000000	          0.00000000	          0.00000000	          1.00632257	          0.00000000	         -0.15178259	        -14.77797063	        607.42480256	         12.97035704	          1.32386670	          0.00000000	         -0.24742439	          0.00000000	          0.00000000	          0.00000000	          0.00000000	          0.02260022	          0.00000000	          1.31065655	          0.89266723	         -0.23075673	          1.30168283	          0.86850405	         -0.16346283	          1.31442523	          0.87776273	         -0.31306529	          1.44736135	          0.48163661	         -0.13353752	          1.30485165	          0.46343833	         -0.28304437	          1.24867666	          0.14013921	         -0.13031374	          1.27894998	          0.06965207	         -0.23659907	          1.39229965	          0.96122086	         -0.22563675	          1.38228917	          0.95394713	         -0.10810871	          1.40231013	          0.96849459	         -0.34316477	          1.20229030	          0.99479592	         -0.19924922	          1.21368277	          1.00039220	         -0.28450444	          1.45387232	          0.48855349	         -0.07581392	          1.31558979	          0.45907244	         -0.33987424	          1.45709956	          0.46332222	         -0.18280582	          1.27617419	          0.45451361	         -0.23743404	          1.23078883	          0.15086861	         -0.09618300	          1.26395750	          0.06640907	         -0.27245587	          1.26779246	          0.14545527	         -0.15571836	          1.28486848	          0.08593491	         -0.21214049	          1.22066784	          1.42954171	         -0.22224243	          1.34051919	          1.34495103	         -0.16535275	          1.35224354	          1.34917390	         -0.26970875	          1.32981813	          1.35585701	         -0.21657966	          1.40203631	          1.18786347	         -0.22661388	          1.46767414	          0.58948153	         -0.00033443	          1.45331526	          0.53712976	         -0.27509993	          1.46284616	          0.65435368	         -0.06763092	          1.39424872	          0.59554654	         -0.32563347	          1.49283147	          0.57198685	         -0.08635181	          1.36452842	          0.51187056	         -0.32258293	          1.29805672	          0.26877722	         -0.00926124	          1.30311131	          0.19289738	         -0.37116653	          1.28689909	          0.23647422	         -0.08265501	          1.27929509	          0.16382767	         -0.29918200	          1.33083415	          0.05927121	         -0.09461172	          1.39976084	          0.03922521	         -0.26151699	
          1.07499993	          1.39726996	          0.96111351	         -0.22641581	          1.19624710	          4.19770098	         -4.00836325	         20.86936569	         -5.45574474	         13.69697380	        -49.39850235	         -0.59556860	          0.00000000	          0.00000000	         -2.16282654	          7.68765688	          5.90147114	         -1.98357046	          5.01113987	          0.00000000	          0.00000000	        -13.44302654	         -0.46577653	         -1.89981771	          0.00000000	          0.00000000	          0.00000000	          1.00685315	          0.00000000	         -0.15198764	        -11.86134484	        608.57568357	         12.21160761	          1.32377148	          0.00000000	         -0.24729472	          0.00000000	          0.00000000	          0.00000000	          0.00000000	         -0.20047729	          0.00000000	          1.31505966	          0.89186323	         -0.23114407	          1.30678153	          0.86859900	         -0.16375531	          1.31916940	          0.87741750	         -0.31341413	          1.45807421	          0.48350561	         -0.13428289	          1.30761552	          0.46327221	         -0.28291452	          1.26999092	          0.13534822	         -0.13065279	          1.27939796	          0.06967546	         -0.23638864	          1.39726996	          0.96111351	         -0.22641581	          1.38753843	          0.95418602	         -0.10884909	          1.40700150	          0.96804100	         -0.34398252	          1.20746577	          0.99473286	         -0.19942243	          1.21860671	          1.00014567	         -0.28469351	          1.46418703	          0.49032909	         -0.07650466	          1.31813538	          0.45879117	         -0.33977625	          1.46737790	          0.46648768	         -0.18502346	          1.27995336	          0.45393640	         -0.23814327	          1.25191975	          0.14546750	         -0.09643240	          1.26431251	          0.06652211	         -0.27221438	          1.28913236	          0.14127709	         -0.15606900	          1.28512394	          0.08587275	         -0.21178240	          1.22700024	          1.42945910	         -0.22304516	          1.34658158	          1.34440577	         -0.16739407	          1.35826445	          1.34892571	         -0.27004206	          1.33573842	          1.35567534	         -0.21709020	          1.40763831	          1.18734586	         -0.22834560	          1.47604275	          0.59109598	         -0.00091010	          1.45662713	          0.53616214	         -0.27554426	          1.47013664	          0.65631044	         -0.06766581	          1.39793837	          0.59466928	         -0.32607260	          1.50148523	          0.57456881	         -0.08739460	          1.36857128	          0.51179332	         -0.32312524	          1.31577897	          0.26530427	         -0.00962187	          1.30403352	          0.19264525	         -0.37102929	          1.30568743	          0.23238246	         -0.08322605	          1.28012013	          0.16391385	         -0.29900739	          1.35541666	          0.05784918	         -0.09504320	          1.39975166	          0.03922898	         -0.26161376	
          1.08333325	          1.40227830	          0.96095747	         -0.22719932	          1.17336655	          4.01357031	         -3.89612675	         21.62487411	         -5.22346592	         13.11655617	        -48.34350586	         -0.14360607	          0.00000000	          0.00000000	         -2.44289970	          7.61254406	          5.87122059	         -2.07044911	          5.31261635	          0.00000000	          0.00000000	        -13.64358711	         -0.42440572	         -1.45817649	          0.00000000	          0.00000000	          0.00000000	          1.00738037	          0.00000000	         -0.15221486	         -8.85514092	        609.63479800	         11.74608942	          1.32363293	          0.00000000	         -0.24721785	          0.00000000	          0.00000000	          0.00000000	          0.00000000	         -0.38642334	          0.00000000	          1.32002068	          0.89165926	         -0.23135015	          1.31192458	          0.86864191	         -0.16405292	          1.32393718	          0.87703955	         -0.31376651	          1.46854711	          0.48524180	         -0.13501319	          1.31039405	          0.46310684	         -0.28279069	          1.29154587	          0.13055722	         -0.13104014	          1.27981675	          0.06972163	         -0.23622264	          1.40227830	          0.96095747	         -0.22719932	          1.39284122	          0.95436025	         -0.10958429	          1.41171539	          0.96755469	         -0.34481433	          1.21264911	          0.99465990	         -0.19956517	          1.22349083	          0.99985433	         -0.28482521	          1.47421360	          0.49193746	         -0.07717456	          1.32070339	          0.45851219	         -0.33968186	          1.47715652	          0.46889555	         -0.18606241	          1.28399241	          0.45360804	         -0.23745225	          1.27331841	          0.14003789	         -0.09671996	          1.26462758	          0.06666549	         -0.27201298	          1.31058264	          0.13708158	         -0.15647604	          1.28542316	          0.08581871	         -0.21144165	          1.23356152	          1.42935026	         -0.22327720	          1.35312915	          1.34428608	         -0.16816191	          1.36374998	          1.34873271	         -0.27054191	          1.34168923	          1.35541630	         -0.21756552	          1.41325474	          1.18708217	         -0.22947627	          1.48409164	          0.59256643	         -0.00142257	          1.45995641	          0.53521699	         -0.27597407	          1.47757864	          0.65822190	         -0.06792099	          1.40119350	          0.59387058	         -0.32643116	          1.50982344	          0.57694733	         -0.08787912	          1.37223256	          0.51166165	         -0.32307476	          1.33364856	          0.26170164	         -0.01003607	          1.30489779	          0.19240583	         -0.37090540	          1.32374203	          0.22873668	         -0.08364070	          1.28037059	          0.16402748	         -0.29882026	          1.38007486	          0.05658587	         -0.09552495	          1.39972460	          0.03924161	         -0.26171204	
          1.09166670	          1.40733504	          0.96076041	         -0.22797284	          1.14993763	          3.83032799	         -3.77041101	         22.32721329	         -5.01032495	         12.49152088	        -47.18750000	          0.24725346	          0.00000000	          0.00000000	         -2.72388935	          7.53639317	          5.86784315	         -2.16862774	          5.62502337	          0.00000000	          0.00000000	        -13.69701385	         -0.34512940	         -1.21050262	          0.00000000	          0.00000000	          0.00000000	          1.00792346	          0.00000000	         -0.15245322	         -6.11319002	        610.35602253	         11.65665713	          1.32368604	          0.00000000	         -0.24725937	          0.00000000	          0.00000000	          0.00000000	          0.00000000	         -0.52716656	          0.00000000	          1.32531977	          0.89178509	         -0.23150122	          1.31713200	          0.86864126	         -0.16432635	          1.32873464	          0.87662715	         -0.31409478	          1.47871995	          0.48681793	         -0.13571124	          1.31320477	          0.46294540	         -0.28266457	          1.31332767	          0.12582009	         -0.13146573	          1.28018558	          0.06977727	         -0.23609799	          1.40733504	          0.96076041	         -0.22797284	          1.39821851	          0.95448565	         -0.11029594	          1.41645169	          0.96703517	         -0.34564975	          1.21784544	          0.99457544	         -0.19967061	          1.22836328	          0.99951857	         -0.28490496	          1.48392272	          0.49335897	         -0.07781138	          1.32331789	          0.45824137	         -0.33958203	          1.48563623	          0.47009581	         -0.18601091	          1.28708541	          0.45368946	         -0.23676005	          1.29496300	          0.13463873	         -0.09704231	          1.26489317	          0.06682674	         -0.27185324	          1.33222914	          0.13302124	         -0.15701513	          1.28571630	          0.08581648	         -0.21129829	          1.23965251	          1.42913926	         -0.22330908	          1.35935628	          1.34405863	         -0.16831481	          1.36930716	          1.34846210	         -0.27092007	          1.34767866	          1.35513949	         -0.21801087	          1.41896641	          1.18679070	         -0.23004347	          1.49185753	          0.59388071	         -0.00187074	          1.46329224	          0.53429788	         -0.27636382	          1.48458672	          0.65977848	         -0.06831405	          1.40449071	          0.59361404	         -0.32670796	          1.51751065	          0.57856321	         -0.08811239	          1.37493169	          0.51086253	         -0.32300925	          1.35161150	          0.25802752	         -0.01048244	          1.30573380	          0.19217463	         -0.37079152	          1.34187675	          0.22529966	         -0.08414032	          1.28048980	          0.16396379	         -0.29860687	          1.40476954	          0.05549370	         -0.09607333	          1.39967132	          0.03926751	         -0.26180151	
